<?xml version="1.0" encoding="UTF-8" standalone="no"?><svg xmlns="http://www.w3.org/2000/svg" xmlns:xlink="http://www.w3.org/1999/xlink" xmlns:serif="http://www.serif.com/" width="100%" height="100%" viewBox="0 0 480 117" version="1.1" style="fill-rule:evenodd;clip-rule:evenodd;stroke-linejoin:round;stroke-miterlimit:2;"><g transform="matrix(1,0,0,1,-4476.228319,-1930.742629)"><g transform="matrix(2,0,0,2,4320,0)"><g transform="matrix(0.5,0,0,0.5,77.20525,496.425186)"><text x="154.411px" y="1007.295px" style="font-family:'Helvetica';font-size:46.627px;fill:rgb(0,19,22);">J<tspan x="179.27px 206.747px 234.225px 261.702px 273.449px 313.836px 341.313px 368.791px 378.733px 403.592px 431.07px 458.547px " y="1007.295px 1007.295px 1007.295px 1007.295px 1007.295px 1007.295px 1007.295px 1007.295px 1007.295px 1007.295px 1007.295px 1007.295px ">obb med vann</tspan></text></g><g transform="matrix(1,0,0,1,90.8188,991.3689)"><path d="M0,8.232C0.354,5.058 1.119,2.277 2.244,-0.564C3.859,-4.49 5.893,-8.01 8.323,-11.584C6.717,-13.959 5.044,-16.064 3.1,-18.183C0.606,-15.445 -1.515,-12.7 -3.386,-9.615C-4.554,-7.547 -5.521,-5.528 -6.078,-3.229C-7.293,1.606 -4.807,6.527 0,8.232M37.454,6.444C35.512,-2.587 28.28,-11.707 22.08,-18.328C15.845,-11.665 8.629,-2.549 6.683,6.351C5.179,12.824 7.693,19.359 12.998,23.076C18.382,26.849 25.565,26.891 30.994,23.161C36.311,19.506 38.922,13.008 37.454,6.444M-12.111,-5.117C-10.07,-12.565 -4.643,-19.375 0.626,-24.704C1.912,-26.143 3.987,-26.257 5.37,-24.906C7.915,-22.418 10.178,-19.771 12.318,-16.903C14.715,-19.792 17.099,-22.441 19.697,-24.984C20.991,-26.251 22.798,-26.347 24.226,-25.177C32.08,-17.428 40.804,-6.496 43.428,4.347C46.608,16.477 39.335,28.618 27.383,31.596C15.411,34.579 3.167,27.129 0.445,14.861C-8.785,13.226 -14.649,4.142 -12.111,-5.117" style="fill:rgb(0,19,22);fill-rule:nonzero;"/></g></g></g></svg>